<svg xmlns="http://www.w3.org/2000/svg" viewBox="0 0 1600 1200" width="550" height="550"><g data-name="10"><rect width="715.32" height="501" x="462" y="57" fill="#f0efff" class="colorf0efff svgShape"></rect><rect width="715.32" height="50.1" x="462" y="57" fill="#bad0f7" class="colorbad0f7 svgShape"></rect><circle cx="493.54" cy="82.98" r="8.35" fill="#ffffff" class="colorfff svgShape"></circle><circle cx="526.02" cy="82.98" r="8.35" fill="#ffffff" class="colorfff svgShape"></circle><circle cx="558.49" cy="82.98" r="8.35" fill="#ffffff" class="colorfff svgShape"></circle><rect width="17.11" height="186.19" x="615.33" y="852.18" fill="#7694ad" class="color7694ad svgShape"></rect><path fill="#bad0f7" d="M561 850.29H686a20.82 20.82 0 01-20.82 20.83H581.86A20.83 20.83 0 01561 850.29zM624.63 1020.15h0a18.59 18.59 0 0118.59 18.59v33.47H606v-33.47A18.59 18.59 0 01624.63 1020.15z" class="colorbad0f7 svgShape"></path><circle cx="508.22" cy="1109.78" r="18.22" fill="#7694ad" class="color7694ad svgShape"></circle><circle cx="568.47" cy="1109.78" r="18.22" fill="#7694ad" class="color7694ad svgShape"></circle><circle cx="680.79" cy="1109.78" r="18.22" fill="#7694ad" class="color7694ad svgShape"></circle><circle cx="741.78" cy="1109.78" r="18.22" fill="#7694ad" class="color7694ad svgShape"></circle><path fill="#7694ad" d="M681.16,1113.12h0a5.2,5.2,0,0,1-5.21-5.2v-5.58A24.92,24.92,0,0,0,651,1077.42H538.72a24.92,24.92,0,0,0-24.92,24.92v5.58a5.2,5.2,0,0,1-5.2,5.2h0a5.2,5.2,0,0,1-5.21-5.2v-5.58A35.33,35.33,0,0,1,538.72,1067H651a35.33,35.33,0,0,1,35.33,35.33v5.58A5.2,5.2,0,0,1,681.16,1113.12Z" class="color7694ad svgShape"></path><path fill="#bad0f7" d="M741.4,1113.12h0a5.2,5.2,0,0,1-5.2-5.2v-5.58a24.92,24.92,0,0,0-24.92-24.92H599a24.92,24.92,0,0,0-24.92,24.92v5.58a5.2,5.2,0,0,1-5.21,5.2h0a5.2,5.2,0,0,1-5.2-5.2v-5.58A35.33,35.33,0,0,1,599,1067H711.28a35.33,35.33,0,0,1,35.33,35.33v5.58A5.2,5.2,0,0,1,741.4,1113.12Z" class="colorbad0f7 svgShape"></path><path fill="#7694ad" d="M658.55,826.5,622.43,562.42A23.62,23.62,0,0,0,599,542H465.12a23.62,23.62,0,0,0-23.4,26.82L477,826.5Z" class="color7694ad svgShape"></path><path fill="#96b1cc" d="M678.55,826.5,642.43,562.42A23.62,23.62,0,0,0,619,542H485.12a23.62,23.62,0,0,0-23.4,26.82L497,826.5Z" class="color96b1cc svgShape"></path><rect width="299.5" height="31" x="476.55" y="821.5" fill="#7694ad" class="color7694ad svgShape"></rect><path fill="#96b1cc" d="M1074.43,449,1063.5,610.13a13.07,13.07,0,0,1-13,12.19H798.83a13.06,13.06,0,0,1-13-14l10.93-161.16a13.07,13.07,0,0,1,13-12.19H1061.4A13.07,13.07,0,0,1,1074.43,449Z" class="color96b1cc svgShape"></path><rect width="217.24" height="12.78" x="796.03" y="663.72" fill="#96b1cc" class="color96b1cc svgShape"></rect><path fill="#bad0f7" d="M1085.33,449l-10.94,160.9a13.06,13.06,0,0,1-13,12.18H809.72a13.06,13.06,0,0,1-13-13.95l10.94-160.9a13.06,13.06,0,0,1,13-12.18H1072.3A13.06,13.06,0,0,1,1085.33,449Z" class="colorbad0f7 svgShape"></path><polygon fill="#5d7c91" points="922.55 664.7 910.89 543.95 968.25 543.95 980.96 675.6 955 675.6 923.6 675.6 880.18 675.6 879.27 664.7 922.55 664.7" class="color5d7c91 svgShape"></polygon><polygon fill="#96b1cc" points="977.33 543.95 990.04 675.6 932.68 675.6 919.97 543.95 977.33 543.95" class="color96b1cc svgShape"></polygon><path fill="#5d7c91" d="M933.75,578.9a18.6,18.6,0,0,0,14.52,18.15,17.81,17.81,0,0,0,4.09.47,18.62,18.62,0,0,0,0-37.23,17.81,17.81,0,0,0-4.09.47A18.59,18.59,0,0,0,933.75,578.9Z" class="color5d7c91 svgShape"></path><ellipse cx="948.27" cy="578.9" fill="#bad0f7" rx="14.53" ry="18.15" class="colorbad0f7 svgShape"></ellipse><rect width="34.32" height="12.78" x="765" y="663.72" fill="#5d7c91" class="color5d7c91 svgShape"></rect><polygon fill="#ffad94" points="907.7 1104.36 870.62 1104.36 865.1 1087.32 850.25 1041.53 894.21 1042.14 902.24 1079.17 907.7 1104.36" class="colorffad94 svgShape"></polygon><polygon points="902.24 1079.17 865.1 1087.32 850.25 1041.53 894.21 1042.14 902.24 1079.17" fill="#000000" class="color000 svgShape"></polygon><path d="M480.11,460.64c15.92-22.71,19.29-36.15,20.58-49.49,3.13-32.18,8.9-46.13,17.82-58.57,7-9.73,16.49-14.17,24.23-17.77,12.13-5.64,30.67-16.87,51.52-10.58,32.8,9.89,21.6,83.46,21.6,83.46s9.67,8.75,8.4,29.57,19.68,24.39,19.68,24.39c49.48,20.6,1.27,71.46,1.27,71.46-88.15,64.57-151.42,16.8-151.42,16.8C443.85,520.12,467.14,479.12,480.11,460.64Z" fill="#000000" class="color000 svgShape"></path><path fill="#ffad94" d="M558.46,505.15,616,502.26l-15.82-62.64s45.41-11-7.4-91.94c12.29,35.84-23.26,55.42-23.26,55.42,15.08-14.53,18.42-28.91,17.49-40.47-3.15,21.35-29.47,31.83-29.47,31.83-18.82-8.5-18,5.22-17.54,10.35.65,6.94,6.17,15.52,13.07,18.13Z" class="colorffad94 svgShape"></path><path d="M661.3,716.55l141.66,51a34.5,34.5,0,0,1,21.51,23.11L905,1074l-57,6L749.8,824,567,821s0-88.14,40.75-120.75Z" fill="#000000" class="color000 svgShape"></path><polygon fill="#ffad94" points="768.21 1042.14 758.54 1083.61 753.7 1104.36 716.62 1104.36 719.78 1078.38 724.25 1041.53 768.21 1042.14" class="colorffad94 svgShape"></polygon><polygon points="768.21 1042.14 758.54 1083.61 719.78 1078.38 724.25 1041.53 768.21 1042.14" fill="#000000" class="color000 svgShape"></polygon><path d="M718.3 1091.7c3.24 3.38 16.44 14.5 38.32-.67a.63.63 0 01.65 0l60.3 32.23a3.07 3.07 0 01-1.45 5.78H717.73a7.08 7.08 0 01-6.9-8.63l6.41-28.37A.62.62 0 01718.3 1091.7zM866.3 1091.7c3.24 3.38 16.44 14.5 38.32-.67a.63.63 0 01.65 0l60.3 32.23a3.07 3.07 0 01-1.45 5.78H865.73a7.08 7.08 0 01-6.9-8.63l6.41-28.37A.62.62 0 01866.3 1091.7z" fill="#000000" class="color000 svgShape"></path><path fill="#273237" d="M714.94,1073l63.46.42,47.48-272.86a48.91,48.91,0,0,0-35.71-55.25L653,706l-130.2-1.11s-16.26,35.94-15.25,83.42a37,37,0,0,0,36.9,36.11l189.12,1Z" class="color273237 svgShape"></path><path fill="#ffad94" d="M882.55,382.06c-4.19,5.59-17.39,20.19-23.49,26.88a15.58,15.58,0,0,1-7.62,4.58l-31.33,8L761.1,586a17.89,17.89,0,0,1-25.86,9.41L715.79,584l-37.08-21.63,26.62-46.25,27.44,18.25,4.69,3.12,51.43-118.7,9.57-22.35a28.22,28.22,0,0,1,13.83-14.36l25.27-12s1.83,12.85-11,22l23-1.84,33.06-20.2S888.06,374.72,882.55,382.06Z" class="colorffad94 svgShape"></path><polygon points="732.77 534.38 715.79 584.01 678.71 562.38 705.33 516.13 732.77 534.38" fill="#000000" class="color000 svgShape"></polygon><path fill="#00cab4" d="M661.8,556c-2.75,18.36-7.35,63.36-7.35,63.36l10.42,87.45L665,708l-145.08-.92,9-69.79,1.59-12.39-15.61-59.69-66.12,48.67-29.38-31.22L528.65,477.05l26.63-4.59c43.72,32.54,52.26-6.34,52.26-6.34l38.22,5.44a43.05,43.05,0,0,1,19,8.36l64.46,49.9-26.63,50.51Z" class="color00cab4 svgShape"></path><path d="M665,708l-145.08-.92,9-69.79C551,677,567,690,664.87,706.84Z" opacity=".15" fill="#000000" class="color000 svgShape"></path><path fill="#c92041" d="M447.84,671.47l-.68-3.94c69.8-12,115.47-38.47,135.75-78.8,28.47-56.6-3.86-121.67-4.19-122.33l3.56-1.81c.35.69,8.55,17,13.26,40.75,4.35,22,6.32,54.59-9,85.16C565.63,632,519,659.28,447.84,671.47Z" class="colorc92041 svgShape"></path><path fill="#c92041" d="M596.26,454.5,586.69,443a9.33,9.33,0,0,0-10.58-2.72l-11.4,4.45-2.34-2.81L535,409l-2.34-2.81,6.44-10.4a9.33,9.33,0,0,0-.76-10.9l-9.56-11.49a10.65,10.65,0,0,0-17.33,1.37l-4.75,8a19.6,19.6,0,0,0,1.79,22.54l12.68,15.23,27.41,32.92,12.68,15.22a19.57,19.57,0,0,0,21.84,5.84l8.7-3.21A10.65,10.65,0,0,0,596.26,454.5Z" class="colorc92041 svgShape"></path><rect width="65.46" height="34.5" x="306.94" y="642" fill="#000000" class="color000 svgShape"></rect><polygon fill="#c92041" points="371.96 642 371.96 676.5 456 676.5 456 656.15 371.96 642" class="colorc92041 svgShape"></polygon><path fill="#ffad94" d="M505.73,422.66a9.5,9.5,0,0,0,4.34,11.27s.87,6.94,5.2,8.67c0,0,0,6.07,5.21,8.67,0,0,1.73,4.34,4.33,4.34,2,0-66.56,76.95-100,114.4A26.67,26.67,0,0,0,427,607.79h0a26.68,26.68,0,0,0,40.55-6.31l84.11-140.67-11.27-22.54s6.07-8.68,11.27-9.54c0,0,0-4.34-5.2-6.07,0,0-.87-6.94-5.2-6.94,0,0-2.6-7.8-6.07-7.8,0,0-.87-10.41-5.21-9.54S510.94,407.05,505.73,422.66Z" class="colorffad94 svgShape"></path><rect width="117.84" height="3" x="440.12" y="547.81" transform="rotate(-59.34 499.089 549.323)" fill="#000000" class="color000 svgShape"></rect><path d="M523.37 420l-1.74-1c.21-.38 5.27-9.35 13.52-12.45l.7 1.88C528.28 411.27 523.42 419.9 523.37 420zM530.85 426.53l-1.7-1.06c.21-.34 5.27-8.33 11.53-10.42l.64 1.9C535.72 418.81 530.9 426.45 530.85 426.53zM537.87 432.5l-1.74-1c.17-.29 4.24-7.32 9.5-9.43l.74 1.86C541.76 425.77 537.91 432.43 537.87 432.5z" fill="#000000" class="color000 svgShape"></path><rect width="27.61" height="3" x="647.64" y="555.22" transform="rotate(-83.51 661.482 556.712)" fill="#000000" class="color000 svgShape"></rect><rect width="3" height="28.24" x="513.23" y="549.13" transform="rotate(-13.22 514.77 563.258)" fill="#000000" class="color000 svgShape"></rect><path fill="#ffffff" d="M590,416l21-4S610,430,590,416Z" class="colorfff svgShape"></path><rect width="154.69" height="3" x="735.81" y="875.6" fill="#ffffff" transform="rotate(-79.69 813.08 877.082)" class="colorfff svgShape"></rect><g><path fill="#00cab4" d="M1145.79,524.49a25.23,25.23,0,0,1-2.29,8.75c-2.81,6.46-12.48,25.29-12.48,25.29l-6.71-.61s-.13-.68-.34-1.83c-1-5.24-3.86-20.34-5-26.06-1.55-8.19,3-19.1,15.13-17.95C1138.68,512.51,1146.22,515.41,1145.79,524.49Z" class="color00cab4 svgShape"></path><path fill="#00cab4" d="M1120.77,554.78l-5.86,2.77-.74-.78-8.91-9.43a11.93,11.93,0,0,1-1.92-2.7c-1.23-2.4-2.81-6.8-.51-10.76a9.39,9.39,0,0,1,4.64-3.92c2-.8,5-1.62,7.62-.64s4.93,3.64,5.68,9.72C1121.25,542.94,1120.77,554.78,1120.77,554.78Z" class="color00cab4 svgShape"></path><rect width="1.38" height="3.72" x="1123.01" y="520.83" fill="#ffffff" transform="matrix(1 -.08 .08 1 -39.55 95.18)" class="colorfff svgShape"></rect><rect width="3.12" height="1.38" x="1132.56" y="526.15" fill="#ffffff" transform="rotate(-81.43 1134.068 526.855)" class="colorfff svgShape"></rect><rect width="1.38" height="3.09" x="1123.78" y="532.25" fill="#ffffff" class="colorfff svgShape"></rect><rect width="2.93" height="1.38" x="1133.34" y="536.96" fill="#ffffff" transform="rotate(-71.57 1134.821 537.648)" class="colorfff svgShape"></rect><rect width="1.38" height="3.09" x="1125.32" y="544.9" fill="#ffffff" class="colorfff svgShape"></rect><rect width="1.38" height="3.09" x="1131.5" y="513.74" fill="#ffffff" class="colorfff svgShape"></rect><rect width="1.38" height="2.89" x="1113.21" y="534.66" fill="#ffffff" transform="rotate(-15.55 1113.947 536.125)" class="colorfff svgShape"></rect><rect width="1.38" height="2.87" x="1107.2" y="542.31" fill="#ffffff" transform="rotate(-36.27 1107.917 543.74)" class="colorfff svgShape"></rect><rect width="1.38" height="3.04" x="1112.98" y="546.31" fill="#ffffff" transform="rotate(-23.96 1113.817 547.868)" class="colorfff svgShape"></rect><rect width="1.38" height="2.91" x="1105.11" y="533.57" fill="#ffffff" transform="rotate(-32.01 1105.68 535.012)" class="colorfff svgShape"></rect><path fill="#00aa91" d="M1145.79 524.49a25.23 25.23 0 01-2.29 8.75c-2.81 6.46-12.48 25.29-12.48 25.29l-6.71-.61s-.13-.68-.34-1.83l2-1.31C1139.88 541.06 1144.63 531.14 1145.79 524.49zM1120.77 554.78l-5.86 2.77-.74-.78c1.83-3.09 7.21-19.29.92-27.45 2.62 1 4.93 3.64 5.68 9.72C1121.25 542.94 1120.77 554.78 1120.77 554.78z" class="color00aa91 svgShape"></path><path fill="#00cab4" d="M1143.29,571.13a19.43,19.43,0,1,1-9.81-16.89A19.44,19.44,0,0,1,1143.29,571.13Z" class="color00cab4 svgShape"></path><rect width="1.38" height="2.93" x="1110.98" y="559.64" fill="#ffffff" transform="rotate(-18.44 1111.42 561.015)" class="colorfff svgShape"></rect><rect width="1.38" height="3.45" x="1119.78" y="562.46" fill="#ffffff" transform="rotate(-10.3 1120.88 564.327)" class="colorfff svgShape"></rect><rect width="1.38" height="3.09" x="1130.57" y="561.26" fill="#ffffff" class="colorfff svgShape"></rect><path fill="#00aa91" d="M1143.29,571.13a19.44,19.44,0,0,1-35.24,11.32c30.92-6.63,28-22.1,25.43-28.21A19.44,19.44,0,0,1,1143.29,571.13Z" class="color00aa91 svgShape"></path><path fill="#acc5ea" d="M1150.74,575.3l-1.08,6.06-6.15,34.46a5.66,5.66,0,0,1-5.58,4.68H1110.4a5.66,5.66,0,0,1-5.58-4.68l-7.23-40.52a2.77,2.77,0,0,1,2.72-3.25H1148A2.77,2.77,0,0,1,1150.74,575.3Z" class="coloracc5ea svgShape"></path><path fill="#96b1cc" d="M1149.66,581.36l-6.15,34.46a5.66,5.66,0,0,1-5.58,4.68h-11.32Z" class="color96b1cc svgShape"></path><rect width="2.91" height="1.38" x="1139.55" y="521.63" fill="#ffffff" transform="rotate(-71.57 1141.02 522.321)" class="colorfff svgShape"></rect><rect width="1.38" height="3.22" x="1124.91" y="554.28" fill="#ffffff" class="colorfff svgShape"></rect><rect width="46.91" height="3" x="1101.68" y="570.71" fill="#000000" class="color000 svgShape"></rect></g><g><path fill="#c92041" d="M1186.38,631.63v-6.52H1191v-5.43H1079.75a14.54,14.54,0,0,0-14.54,14.53h0a14.54,14.54,0,0,0,14.54,14.54H1191v-5.43h-4.62V631.63Z" class="colorc92041 svgShape"></path><path fill="#ffaa3f" d="M1171.71,659.88v-6.52h4.62v-5.43H1065.08a14.54,14.54,0,0,0-14.54,14.54h0A14.54,14.54,0,0,0,1065.08,677h111.25v-5.43h-4.62V659.88Z" class="colorffaa3f svgShape"></path><path fill="#ffffff" d="M1172.8,653.23V671.7h-65.88a9.23,9.23,0,0,1-9.24-9.23,9.13,9.13,0,0,1,1-4.15,9.23,9.23,0,0,1,8.26-5.09Z" class="colorfff svgShape"></path><path d="M1172.8,653.23v9l-74.14-4a9.23,9.23,0,0,1,8.26-5.09Z" opacity=".15" fill="#000000" class="color000 svgShape"></path><path fill="#ffffff" d="M1187.47,625v18.47h-65.88a9.23,9.23,0,0,1-9.24-9.24,9.12,9.12,0,0,1,1-4.14,9.24,9.24,0,0,1,8.26-5.09Z" class="colorfff svgShape"></path><polygon points="1139.52 624.97 1148.21 624.97 1148.21 636.66 1157.45 636.66 1157.45 663.83 1153.1 659.21 1149.3 663.83 1149.3 638.83 1139.52 638.83 1139.52 624.97" fill="#000000" class="color000 svgShape"></polygon><path d="M1187.47,625v9l-74.14-4a9.24,9.24,0,0,1,8.26-5.09Z" opacity=".15" fill="#000000" class="color000 svgShape"></path></g><g><polygon fill="#96b1cc" points="349.72 695.06 230.74 1127.93 207.96 1127.93 326.94 695.06 349.72 695.06" class="color96b1cc svgShape"></polygon><polygon fill="#96b1cc" points="326.94 695.06 445.91 1127.93 468.7 1127.93 349.72 695.06 326.94 695.06" class="color96b1cc svgShape"></polygon><polygon fill="#96b1cc" points="424.4 695.06 543.37 1127.93 566.16 1127.93 447.18 695.06 424.4 695.06" class="color96b1cc svgShape"></polygon><polygon fill="#96b1cc" points="447.18 695.06 328.2 1127.93 305.42 1127.93 424.4 695.06 447.18 695.06" class="color96b1cc svgShape"></polygon><polygon fill="#96b1cc" points="1043.7 695.06 924.73 1127.93 901.94 1127.93 1020.92 695.06 1043.7 695.06" class="color96b1cc svgShape"></polygon><polygon fill="#96b1cc" points="1020.92 695.06 1139.9 1127.93 1162.68 1127.93 1043.7 695.06 1020.92 695.06" class="color96b1cc svgShape"></polygon><polygon fill="#96b1cc" points="1118.38 695.06 1237.36 1127.93 1260.14 1127.93 1141.16 695.06 1118.38 695.06" class="color96b1cc svgShape"></polygon><polygon fill="#96b1cc" points="1141.16 695.06 1022.19 1127.93 999.4 1127.93 1118.38 695.06 1141.16 695.06" class="color96b1cc svgShape"></polygon><polygon fill="#96b1cc" points="253.96 675.78 253.96 698.3 415.48 698.3 415.48 676.24 253.96 675.78" class="color96b1cc svgShape"></polygon><polygon fill="#bad0f7" points="1269 1127.93 1150.91 698.3 1229.85 698.3 1229.85 676.24 408.62 675.78 408.62 698.3 432.37 698.3 314.28 1127.93 337.06 1127.93 444.65 736.5 552.23 1127.93 575.02 1127.93 456.93 698.3 1126.35 698.3 1008.26 1127.93 1031.05 1127.93 1138.63 736.5 1246.22 1127.93 1269 1127.93" class="colorbad0f7 svgShape"></polygon></g><g><circle cx="1176.44" cy="422.67" r="40.99" fill="#00cab4" class="color00cab4 svgShape"></circle><path fill="#ffffff" d="M1170.78,441l-17.87-17.89a3.81,3.81,0,0,1,0-5.38h0a3.81,3.81,0,0,1,5.38,0l12.59,12.61,23.38-22.46a3.8,3.8,0,0,1,5.38.11h0a3.79,3.79,0,0,1-.11,5.37Z" class="colorfff svgShape"></path></g><g data-name="Chat Icon"><path fill="#bad0f7" d="M794.81,158.68H622.87a9.18,9.18,0,0,0-9.19,9.19v74.9a9.19,9.19,0,0,0,9.19,9.19h11.54v30.15L662.09,252H794.81a9.19,9.19,0,0,0,9.19-9.19v-74.9A9.18,9.18,0,0,0,794.81,158.68Z" class="colorbad0f7 svgShape"></path><rect width="66.89" height="7.68" x="632.53" y="179.41" fill="#ffffff" class="colorfff svgShape"></rect><rect width="152.63" height="7.68" x="632.53" y="201.01" fill="#ffffff" class="colorfff svgShape"></rect><rect width="152.63" height="7.68" x="632.53" y="222.61" fill="#ffffff" class="colorfff svgShape"></rect></g><g data-name="Chat Icon"><path fill="#bad0f7" d="M255.17,365.65H389.4a7.17,7.17,0,0,1,7.18,7.17v58.47a7.17,7.17,0,0,1-7.18,7.17h-9V462l-21.6-23.54H255.17a7.17,7.17,0,0,1-7.17-7.17V372.82A7.17,7.17,0,0,1,255.17,365.65Z" class="colorbad0f7 svgShape"></path><circle cx="291.03" cy="402.05" r="6.99" fill="#ffffff" class="colorfff svgShape"></circle><circle cx="321.18" cy="402.05" r="6.99" fill="#ffffff" class="colorfff svgShape"></circle><circle cx="352.08" cy="402.05" r="6.99" fill="#ffffff" class="colorfff svgShape"></circle></g><g data-name="Question mark"><path fill="#ffaa3f" d="M491,300s-9.06-20.31-15.82-36.63a61.85,61.85,0,1,0-19.47,15.12Z" class="colorffaa3f svgShape"></path><path fill="#ffffff" d="M433.13 245a9.16 9.16 0 00-6.39-2.29 9.39 9.39 0 00-6.48 2.29 7.3 7.3 0 00-2.59 5.7 7.62 7.62 0 002.59 5.75 10.16 10.16 0 0012.91 0 7.53 7.53 0 002.49-5.8A7.27 7.27 0 00433.13 245zM446.94 196.26a14.68 14.68 0 00-4.53-5.48 19.44 19.44 0 00-6.8-3.15 34.18 34.18 0 00-8.43-1 37.69 37.69 0 00-9.17 1.12 32.86 32.86 0 00-4.73 1.6 5.65 5.65 0 00-3.45 5.17v1.42a5.53 5.53 0 007.66 5.08l.09 0a21.76 21.76 0 017.89-1.59 9.07 9.07 0 013.2.54 7.43 7.43 0 012.43 1.46 6.29 6.29 0 011.54 2.22 7.2 7.2 0 01.53 2.8 10.09 10.09 0 01-.48 3.2 10.65 10.65 0 01-1.47 2.78 20.89 20.89 0 01-2.36 2.68q-1.39 1.33-3.24 2.9a27.16 27.16 0 00-3.07 3 16.54 16.54 0 00-2.2 3.12 14.27 14.27 0 00-1.31 3.48 16.59 16.59 0 00-.42 3.28l0 0v.79a.54.54 0 00.07.27 6.47 6.47 0 0012.87-.89v-.08c0-.25.09-.52.17-.94a6.69 6.69 0 011.29-2.53 17.16 17.16 0 012.15-2.42c.86-.81 1.86-1.69 3-2.63a60.08 60.08 0 004.48-4.07 22.91 22.91 0 003.27-4.12 18.64 18.64 0 002-4.55 20 20 0 00.68-5.39A18.09 18.09 0 00446.94 196.26z" class="colorfff svgShape"></path></g><g><path fill="#bad0f7" d="M1296.24,213.73H1378v3.86a27,27,0,0,1-27,27h-54.76Z" class="colorbad0f7 svgShape"></path><path fill="#a6c0e0" d="M1336.35,244.58s-29.31,0-27.77-33.93h0a30.86,30.86,0,0,0-30.85-30.86h-52.45v64.79Z" class="colora6c0e0 svgShape"></path><path fill="#bad0f7" d="M1159,179.79H1262.3s-23.14,7.72-21.59,44.74V233a28.54,28.54,0,0,1-28.54,28.54H1159Z" class="colorbad0f7 svgShape"></path><path fill="#a6c0e0" d="M1194.43,261.55s-23.14-1.54-24.69-27.76V176.9a28,28,0,0,0-28-28h-60V261.55Z" class="colora6c0e0 svgShape"></path><path fill="#bad0f7" d="M963.8,358V170.54a22.37,22.37,0,0,1,22.37-22.37l141.15.7s-27,4.7-27,30.92V331.07a27.84,27.84,0,0,1-27.68,27.83Z" class="colorbad0f7 svgShape"></path><path fill="#a6c0e0" d="M1029.36,329.43s1.55,23.41,22.37,29.3l-99.12.27A22,22,0,0,1,939,354.31c-5.27-4.17-11.32-11.71-13-24.88Z" class="colora6c0e0 svgShape"></path><rect width="78.67" height="9.26" x="978.46" y="173.62" fill="#ffffff" class="colorfff svgShape"></rect><rect width="43.97" height="9.26" x="978.46" y="192.13" fill="#ffffff" class="colorfff svgShape"></rect><rect width="65.56" height="9.26" x="978.46" y="210.65" fill="#ffffff" class="colorfff svgShape"></rect><rect width="96.41" height="9.26" x="978.46" y="229.16" fill="#ffffff" class="colorfff svgShape"></rect><rect width="82.53" height="9.26" x="978.46" y="247.67" fill="#ffffff" class="colorfff svgShape"></rect><rect width="37.79" height="9.26" x="978.46" y="266.18" fill="#ffffff" class="colorfff svgShape"></rect></g><g data-name="Plant"><path fill="#00cab4" d="M1332,709.76c-4.62,42.27-14.62,93.93-33.39,156.08l-14.32-1.79s.54-19.91,1.87-49.79c3.54-79.15,12.64-228.29,32.13-263.37C1318.32,550.89,1344.38,596.84,1332,709.76Z" class="color00cab4 svgShape"></path><path d="M1293,884.65l-3,0c1.77-190.29,26.61-333.46,26.86-334.88l3,.52C1319.55,551.68,1294.75,694.62,1293,884.65Z" fill="#000000" class="color000 svgShape"></path><path d="M1332,709.76c-4.62,42.27-14.62,93.93-33.39,156.08l-14.32-1.79s.54-19.91,1.87-49.79A686.38,686.38,0,0,1,1332,709.76Z" fill="#000000" class="color000 svgShape"></path><path fill="#00cab4" d="M1287,859.58s50.1-136.9,81.42-170.9c0,0,20.58,84.11-70.69,175.37Z" class="color00cab4 svgShape"></path><path fill="#00cab4" d="M1203.8,601s76.94,111.84,84.1,263h-2.68S1187.69,701.21,1203.8,601Z" class="color00cab4 svgShape"></path><path d="M1283.73 864.28c-23-151-80.68-261.48-81.26-262.58l2.65-1.4c.59 1.1 58.54 112 81.58 263.53zM1286.18 880.21l-2.83-1c39.85-113.34 83.34-190.5 83.77-191.27l2.61 1.48C1369.3 690.19 1325.94 767.14 1286.18 880.21z" fill="#000000" class="color000 svgShape"></path><polygon fill="#acc5ea" points="1341.59 854.21 1335.7 926.29 1319.22 1128 1255.69 1128 1233.32 854.21 1341.59 854.21" class="coloracc5ea svgShape"></polygon><polygon fill="#96b1cc" points="1335.7 926.29 1319.22 1128 1275 1128 1335.7 926.29" class="color96b1cc svgShape"></polygon></g><g><rect width="1501" height="6" x="46" y="1128" fill="#000000" class="color000 svgShape"></rect></g></g></svg>